<svg xmlns="http://www.w3.org/2000/svg" xmlns:xlink="http://www.w3.org/1999/xlink" width="787" zoomAndPan="magnify" viewBox="0 0 590.25 352.49999" height="470" preserveAspectRatio="xMidYMid meet" version="1.0"><defs><g/><clipPath id="21fa12a181"><path d="M 244.046875 182 L 480 182 L 480 205 L 244.046875 205 Z M 244.046875 182 " clip-rule="nonzero"/></clipPath></defs><g clip-path="url(#21fa12a181)"><path fill="#ffffff" d="M 245.59375 195.554688 C 244.941406 196.574219 244.0625 195.769531 244.625 194.878906 C 265.371094 162.050781 278.386719 206.585938 320.09375 202.847656 C 384.316406 197.089844 438 178.71875 477.957031 194.535156 C 480.742188 195.640625 478.78125 197.953125 476.433594 196.871094 C 443.175781 181.5625 381.398438 197.59375 319.816406 204.089844 C 278.089844 208.488281 266.296875 163.265625 245.59375 195.554688 Z M 245.59375 195.554688 " fill-opacity="1" fill-rule="nonzero"/></g><g fill="#545454" fill-opacity="1"><g transform="translate(85.171247, 192.819001)"><g><path d="M 185.839844 -53.40625 C 192.789062 -90.75 199.011719 -129.394531 194.671875 -137.789062 C 193.65625 -142.277344 184.539062 -142.277344 185.839844 -136.195312 C 187.578125 -128.382812 181.644531 -86.40625 174.550781 -51.382812 C 154.867188 -47.90625 138.078125 -42.695312 114.339844 -35.316406 C 123.316406 -84.527344 127.945312 -136.339844 96.539062 -138.511719 C 69.183594 -140.394531 46.316406 -107.25 46.460938 -72.367188 C 10.710938 -87.710938 -10.132812 -58.328125 4.777344 -34.011719 L 8.539062 -34.011719 C -7.382812 -54.132812 8.539062 -85.394531 46.171875 -70.339844 C 46.75 -37.34375 59.34375 -23.445312 70.339844 -24.894531 C 80.761719 -26.34375 88.578125 -51.527344 49.355469 -71.644531 C 48.34375 -102.617188 69.90625 -139.234375 96.539062 -136.195312 C 124.328125 -133.011719 115.210938 -80.90625 104.355469 -31.988281 C 93.933594 -28.511719 83.945312 -24.605469 74.972656 -20.261719 C 73.382812 -19.394531 74.539062 -17.511719 75.550781 -17.65625 C 83.945312 -21.710938 93.5 -25.617188 103.777344 -29.09375 C 95.671875 6.800781 86.839844 40.238281 91.328125 50.65625 C 93.644531 56.011719 100.738281 55.578125 100.011719 49.066406 C 98.566406 36.472656 107.105469 2.894531 113.761719 -32.277344 C 137.066406 -39.65625 154.144531 -45.15625 173.972656 -48.632812 C 166.300781 -1.300781 156.75 43.710938 174.695312 49.933594 C 191.339844 55.578125 231.867188 -8.972656 248.65625 -33.867188 C 248.65625 -34.59375 246.773438 -34.882812 246.195312 -34.15625 C 239.25 -26.195312 201.90625 38.066406 179.039062 47.183594 C 165.722656 52.394531 175.855469 -0.144531 185.261719 -50.367188 C 196.550781 -52.105469 206.25 -53.40625 209.578125 -53.695312 C 210.734375 -53.988281 210.589844 -56.011719 209.289062 -56.15625 C 204.800781 -55.867188 196.550781 -55 185.839844 -53.40625 Z M 71.210938 -26.921875 C 62.960938 -25.039062 50.945312 -32.277344 48.921875 -69.183594 C 83.800781 -50.511719 77.867188 -28.511719 71.210938 -26.921875 Z M 71.210938 -26.921875 "/></g></g></g><g fill="#545454" fill-opacity="1"><g transform="translate(331.222551, 192.819001)"><g><path d="M 94.222656 48.050781 C 62.238281 53.988281 51.671875 15.34375 62.238281 -14.761719 C 106.089844 -18.527344 107.828125 -33.144531 98.855469 -38.5 C 89.300781 -44.144531 68.171875 -40.527344 59.777344 -16.5 C 31.261719 -13.605469 7.671875 0.722656 4.050781 29.382812 C 3.617188 29.816406 6.800781 29.382812 7.960938 29.382812 C 10.855469 1.300781 31.988281 -11 59.195312 -14.472656 C 50.222656 15.777344 58.617188 51.238281 89.445312 50.65625 C 165.722656 49.066406 156.027344 -119.984375 170.644531 -138.367188 C 171.800781 -139.816406 162.539062 -138.800781 161.527344 -138.65625 C 95.960938 -133.445312 55.867188 -58.039062 138.511719 -10.421875 C 130.550781 19.25 117.671875 43.710938 94.222656 48.050781 Z M 139.089844 -12.738281 C 66.578125 -55 89.882812 -126.789062 160.945312 -136.339844 C 150.960938 -125.050781 151.683594 -62.238281 139.089844 -12.738281 Z M 97.550781 -35.171875 C 103.050781 -30.972656 101.894531 -20.84375 62.816406 -16.933594 C 70.632812 -38.5 90.460938 -40.527344 97.550781 -35.171875 Z M 97.550781 -35.171875 "/></g></g></g><g fill="#545454" fill-opacity="1"><g transform="translate(252.206794, 268.978577)"><g><path d="M 16.203125 0 L 13.890625 0 L 13.890625 -7.59375 L 4.8125 -7.59375 L 4.8125 0 L 2.484375 0 L 2.484375 -17.3125 L 4.8125 -17.3125 L 4.8125 -9.8125 L 13.890625 -9.8125 L 13.890625 -17.3125 L 16.203125 -17.3125 Z M 16.203125 0 "/></g></g></g><g fill="#545454" fill-opacity="1"><g transform="translate(277.048988, 268.978577)"><g><path d="M 11.5625 -4.546875 L 4.90625 -4.546875 L 3.0625 0 L 0.765625 0 L 8.328125 -18.03125 L 8.46875 -18.03125 L 16.03125 0 L 13.359375 0 Z M 10.765625 -6.5625 L 8.3125 -12.875 L 5.75 -6.5625 Z M 10.765625 -6.5625 "/></g></g></g><g fill="#545454" fill-opacity="1"><g transform="translate(299.976715, 268.978577)"><g><path d="M 19.703125 -17.859375 L 19.703125 0 L 17.40625 0 L 17.40625 -11.203125 L 11.03125 -2.171875 L 10.984375 -2.171875 L 4.734375 -10.890625 L 4.734375 0 L 2.484375 0 L 2.484375 -17.859375 L 2.515625 -17.859375 L 11.03125 -5.796875 L 19.671875 -17.859375 Z M 19.703125 -17.859375 "/></g></g></g><g fill="#545454" fill-opacity="1"><g transform="translate(328.312815, 268.978577)"><g><path d="M 2.484375 -17.3125 L 7.234375 -17.3125 C 9.378906 -17.3125 11.160156 -16.882812 12.578125 -16.03125 C 13.992188 -15.175781 15.023438 -14.070312 15.671875 -12.71875 C 16.316406 -11.375 16.640625 -9.953125 16.640625 -8.453125 C 16.640625 -6.773438 16.25 -5.289062 15.46875 -4 C 14.6875 -2.71875 13.640625 -1.726562 12.328125 -1.03125 C 11.015625 -0.34375 9.59375 0 8.0625 0 L 2.484375 0 Z M 7.609375 -2.25 C 8.890625 -2.25 10.03125 -2.5 11.03125 -3 C 12.039062 -3.507812 12.828125 -4.238281 13.390625 -5.1875 C 13.960938 -6.144531 14.25 -7.289062 14.25 -8.625 C 14.25 -9.976562 13.953125 -11.140625 13.359375 -12.109375 C 12.765625 -13.085938 11.976562 -13.828125 11 -14.328125 C 10.019531 -14.828125 8.960938 -15.078125 7.828125 -15.078125 L 4.8125 -15.078125 L 4.8125 -2.25 Z M 7.609375 -2.25 "/></g></g></g><g fill="#545454" fill-opacity="1"><g transform="translate(352.508874, 268.978577)"><g><path d="M 4.8125 -17.3125 L 4.8125 0 L 2.484375 0 L 2.484375 -17.3125 Z M 4.8125 -17.3125 "/></g></g></g><g fill="#545454" fill-opacity="1"><g transform="translate(365.95997, 268.978577)"><g/></g></g><g fill="#545454" fill-opacity="1"><g transform="translate(379.674308, 268.978577)"><g><path d="M 4.8125 -17.3125 L 4.8125 0 L 2.484375 0 L 2.484375 -17.3125 Z M 4.8125 -17.3125 "/></g></g></g><g fill="#545454" fill-opacity="1"><g transform="translate(393.125404, 268.978577)"><g><path d="M 11.4375 -14.21875 C 10.820312 -14.550781 10.160156 -14.820312 9.453125 -15.03125 C 8.753906 -15.238281 8.09375 -15.34375 7.46875 -15.34375 C 6.53125 -15.34375 5.785156 -15.128906 5.234375 -14.703125 C 4.679688 -14.285156 4.40625 -13.707031 4.40625 -12.96875 C 4.40625 -12.25 4.726562 -11.660156 5.375 -11.203125 C 6.019531 -10.753906 6.941406 -10.304688 8.140625 -9.859375 C 9.035156 -9.546875 9.789062 -9.203125 10.40625 -8.828125 C 11.019531 -8.453125 11.53125 -7.929688 11.9375 -7.265625 C 12.34375 -6.597656 12.546875 -5.753906 12.546875 -4.734375 C 12.546875 -3.804688 12.3125 -2.96875 11.84375 -2.21875 C 11.382812 -1.46875 10.726562 -0.878906 9.875 -0.453125 C 9.019531 -0.0234375 8.019531 0.1875 6.875 0.1875 C 5.800781 0.1875 4.769531 0.015625 3.78125 -0.328125 C 2.789062 -0.671875 1.921875 -1.101562 1.171875 -1.625 L 2.203125 -3.46875 C 2.796875 -3.019531 3.503906 -2.640625 4.328125 -2.328125 C 5.160156 -2.015625 5.9375 -1.859375 6.65625 -1.859375 C 7.582031 -1.859375 8.390625 -2.097656 9.078125 -2.578125 C 9.773438 -3.054688 10.125 -3.769531 10.125 -4.71875 C 10.125 -5.507812 9.832031 -6.140625 9.25 -6.609375 C 8.664062 -7.085938 7.847656 -7.535156 6.796875 -7.953125 C 5.828125 -8.316406 5.019531 -8.671875 4.375 -9.015625 C 3.726562 -9.367188 3.171875 -9.851562 2.703125 -10.46875 C 2.242188 -11.082031 2.015625 -11.851562 2.015625 -12.78125 C 2.015625 -14.132812 2.488281 -15.226562 3.4375 -16.0625 C 4.382812 -16.90625 5.617188 -17.351562 7.140625 -17.40625 C 9.003906 -17.40625 10.734375 -16.941406 12.328125 -16.015625 Z M 11.4375 -14.21875 "/></g></g></g><g fill="#545454" fill-opacity="1"><g transform="translate(413.205346, 268.978577)"><g><path d="M 19.703125 -17.859375 L 19.703125 0 L 17.40625 0 L 17.40625 -11.203125 L 11.03125 -2.171875 L 10.984375 -2.171875 L 4.734375 -10.890625 L 4.734375 0 L 2.484375 0 L 2.484375 -17.859375 L 2.515625 -17.859375 L 11.03125 -5.796875 L 19.671875 -17.859375 Z M 19.703125 -17.859375 "/></g></g></g><g fill="#545454" fill-opacity="1"><g transform="translate(441.54144, 268.978577)"><g><path d="M 11.5625 -4.546875 L 4.90625 -4.546875 L 3.0625 0 L 0.765625 0 L 8.328125 -18.03125 L 8.46875 -18.03125 L 16.03125 0 L 13.359375 0 Z M 10.765625 -6.5625 L 8.3125 -12.875 L 5.75 -6.5625 Z M 10.765625 -6.5625 "/></g></g></g><g fill="#545454" fill-opacity="1"><g transform="translate(464.469175, 268.978577)"><g><path d="M 4.8125 -17.3125 L 4.8125 0 L 2.484375 0 L 2.484375 -17.3125 Z M 4.8125 -17.3125 "/></g></g></g><g fill="#545454" fill-opacity="1"><g transform="translate(477.920272, 268.978577)"><g><path d="M 4.8125 -17.3125 L 4.8125 -2.25 L 13.625 -2.25 L 13.625 0 L 2.484375 0 L 2.484375 -17.3125 Z M 4.8125 -17.3125 "/></g></g></g></svg>