<svg width="383" height="168" viewBox="0 0 383 168" fill="none" xmlns="http://www.w3.org/2000/svg">
<path d="M5.82812 133.203V83.4688C5.82812 79.5625 4.51562 77.3594 1.89062 76.8594V74.75L11.5938 69.2656C12.875 69.7969 14.1562 70.7344 15.4375 72.0781C16.7188 73.4219 17.3594 74.625 17.3594 75.6875C24.4219 71.4062 28.4531 69.2656 29.4531 69.2656C29.9531 69.2656 30.6406 69.6406 31.5156 70.3906C32.4219 71.1094 33.3438 72.0469 34.2812 73.2031C35.2188 74.3594 36 75.5781 36.625 76.8594C37.2812 78.1094 37.6094 79.2656 37.6094 80.3281V107.281C37.6094 107.812 34.125 109.453 27.1562 112.203C30.125 122.141 33.5781 128.828 37.5156 132.266C39.3281 133.734 41.1406 134.469 42.9531 134.469V137.328C37.0156 141.109 33.25 143 31.6562 143C30.8125 143 29.8281 142.234 28.7031 140.703C27.5781 139.141 26.4375 137.172 25.2812 134.797C24.125 132.391 23.0469 129.891 22.0469 127.297C21.0469 124.672 20.2031 122.281 19.5156 120.125C18.8594 117.969 18.4844 116.375 18.3906 115.344L17.3594 115.625V128.234C17.3594 130.578 17.6094 132.266 18.1094 133.297C18.6094 134.328 19.6719 134.844 21.2969 134.844V137.797L1.60938 146.094L0.0625 143C1.46875 143 2.8125 142.172 4.09375 140.516C5.25 138.953 5.82812 136.516 5.82812 133.203ZM21.1094 78.5C19.9844 78.5 18.7344 78.9688 17.3594 79.9062V111.125C18.4844 111.125 19.7188 110.875 21.0625 110.375C22.4062 109.875 23.5625 109.25 24.5312 108.5C25.5 107.75 25.9844 107 25.9844 106.25V85.5781C25.9844 80.8594 24.3594 78.5 21.1094 78.5ZM60.4844 78.4062C59.8594 78.4062 59.2812 78.7188 58.75 79.3438V104.703H72.2969V107L67.4688 109.391H58.75V119C58.75 126.094 59.4531 130.25 60.8594 131.469C62.9531 133.281 65.25 134.312 67.75 134.562C70.25 134.812 72.9375 134.938 75.8125 134.938V137.703C75.5312 137.703 73.1719 138.578 68.7344 140.328C64.2969 142.109 61.6094 143 60.6719 143C59.6719 143 58.4219 142.578 56.9219 141.734C55.4219 140.891 53.9219 139.781 52.4219 138.406C50.9531 137 49.7188 135.438 48.7188 133.719C47.7188 131.969 47.2188 130.203 47.2188 128.422V77.8906C47.2188 77.7031 47.9375 77.2969 49.375 76.6719C50.8438 76.0156 52.6719 75.2656 54.8594 74.4219C57.0781 73.5781 59.3281 72.75 61.6094 71.9375C63.8906 71.0938 65.8906 70.4062 67.6094 69.875C69.3281 69.3438 70.4062 69.0781 70.8438 69.0781C71.125 69.0781 71.4375 69.5938 71.7812 70.625C72.1562 71.6562 72.5312 72.9219 72.9062 74.4219C73.2812 75.8906 73.6406 77.2812 73.9844 78.5938C74.6406 81.2188 75.3281 83.1562 76.0469 84.4062C76.7969 85.6562 78.2031 86.2812 80.2656 86.2812V88.2031C78.8281 88.7969 76.4375 89.9219 73.0938 91.5781C69.6875 93.2344 67.875 94.0625 67.6562 94.0625C66.7188 94.0625 65.5156 91.4531 64.0469 86.2344C62.5469 81.0156 61.3594 78.4062 60.4844 78.4062ZM93.0156 133.203V82.3438L95.9688 79.4375H89.9219C86.0469 79.4375 83.8438 80.5 83.3125 82.625H81.2031L75.7188 74.75C76.5 73.5312 77.5 72.4531 78.7188 71.5156C79.9062 70.5469 81.0781 70.0625 82.2344 70.0625H107.594C111.469 70.0625 113.672 69 114.203 66.875H116.312L121.797 74.75C121.016 75.9688 120.016 77.0625 118.797 78.0312C117.609 78.9688 116.438 79.4375 115.281 79.4375H104.5V128.234C104.5 130.578 104.75 132.266 105.25 133.297C105.781 134.328 106.844 134.844 108.438 134.844V137.797L88.7969 146.094L87.25 143C88.6562 143 90 142.172 91.2812 140.516C92.4375 138.953 93.0156 136.516 93.0156 133.203ZM121.141 133.203V83.4688C121.141 79.5625 119.828 77.3594 117.203 76.8594V74.75L126.906 69.2656C128.188 69.7969 129.469 70.7344 130.75 72.0781C132.031 73.4219 132.672 74.625 132.672 75.6875C139.734 71.4062 143.766 69.2656 144.766 69.2656C145.266 69.2656 145.953 69.6406 146.828 70.3906C147.734 71.1094 148.656 72.0469 149.594 73.2031C150.531 74.3594 151.312 75.5781 151.938 76.8594C152.594 78.1094 152.922 79.2656 152.922 80.3281V107.281C152.922 107.812 149.438 109.453 142.469 112.203C145.438 122.141 148.891 128.828 152.828 132.266C154.641 133.734 156.453 134.469 158.266 134.469V137.328C152.328 141.109 148.562 143 146.969 143C146.125 143 145.141 142.234 144.016 140.703C142.891 139.141 141.75 137.172 140.594 134.797C139.438 132.391 138.359 129.891 137.359 127.297C136.359 124.672 135.516 122.281 134.828 120.125C134.172 117.969 133.797 116.375 133.703 115.344L132.672 115.625V128.234C132.672 130.578 132.922 132.266 133.422 133.297C133.922 134.328 134.984 134.844 136.609 134.844V137.797L116.922 146.094L115.375 143C116.781 143 118.125 142.172 119.406 140.516C120.562 138.953 121.141 136.516 121.141 133.203ZM136.422 78.5C135.297 78.5 134.047 78.9688 132.672 79.9062V111.125C133.797 111.125 135.031 110.875 136.375 110.375C137.719 109.875 138.875 109.25 139.844 108.5C140.812 107.75 141.297 107 141.297 106.25V85.5781C141.297 80.8594 139.672 78.5 136.422 78.5ZM160.562 128.984V77.8906C160.562 77.7031 161.281 77.2969 162.719 76.6719C164.188 76.0156 166.016 75.2656 168.203 74.4219C170.391 73.5781 172.609 72.75 174.859 71.9375C177.141 71.0938 179.141 70.4062 180.859 69.875C182.578 69.3438 183.656 69.0781 184.094 69.0781C184.656 69.0781 185.391 69.4531 186.297 70.2031C187.203 70.9219 188.109 71.8594 189.016 73.0156C189.953 74.1719 190.734 75.3906 191.359 76.6719C192.016 77.9219 192.344 79.0781 192.344 80.1406V134.094C192.344 134.281 191.641 134.703 190.234 135.359C188.859 136.016 187.125 136.781 185.031 137.656C182.938 138.5 180.766 139.328 178.516 140.141C176.297 140.953 174.297 141.641 172.516 142.203C170.766 142.734 169.578 143 168.953 143C167.922 143 166.75 142.375 165.438 141.125C164.125 139.844 162.984 138.141 162.016 136.016C161.047 133.891 160.562 131.547 160.562 128.984ZM176.969 134.188C178.219 134.188 179.469 133.672 180.719 132.641V85.1094C180.719 80.3906 179.094 78.0312 175.844 78.0312C174.562 78.0312 173.312 78.5 172.094 79.4375V127.062C172.094 131.812 173.719 134.188 176.969 134.188Z" fill="#F43E5C"/>
<path d="M217.693 125.232C216.124 125.654 214.465 124.838 212.716 122.784C210.997 120.722 209.679 117.986 208.763 114.575L203.581 95.2905C203.459 94.8378 203.919 94.0186 204.959 92.833C206.03 91.6393 207.405 90.3152 209.086 88.8606C210.788 87.3678 212.532 85.9121 214.319 84.4936C216.106 83.0751 217.681 81.8915 219.044 80.9429C220.429 79.9559 221.318 79.4097 221.71 79.3043C222.465 79.1016 223.853 80.0551 225.876 82.1649C226.108 82.4262 226.387 82.7397 226.712 83.1054C227.066 83.4631 227.464 83.8579 227.903 84.2898C228.343 84.7218 228.729 85.1358 229.062 85.5317C229.425 85.9195 229.742 86.2551 230.012 86.5384C231.224 87.7983 232.449 88.262 233.687 87.9295L234.185 89.7855C233.759 90.1265 233.259 90.5522 232.684 91.0626C232.109 91.573 231.456 92.1529 230.725 92.8025C227.377 95.9994 225.567 97.6344 225.296 97.7073C224.36 97.9587 222.708 96.445 220.338 93.1663C217.977 89.9178 216.359 88.4111 215.483 88.6463C214.367 88.9463 214.056 90.0168 214.55 91.8577L220.109 112.546C220.774 115.021 221.665 116.108 222.782 115.808C223.053 115.735 224.751 114.405 227.874 111.819C231.066 109.246 233.024 107.862 233.748 107.668C235.257 107.262 236.89 108.102 238.647 110.186C240.397 112.24 241.774 115.138 242.779 118.88L248.083 138.618C248.212 139.101 247.682 139.955 246.49 141.181C245.321 142.369 243.795 143.734 241.911 145.275C240.058 146.809 238.148 148.309 236.18 149.776C234.204 151.213 232.459 152.426 230.945 153.415C229.469 154.427 228.52 154.989 228.098 155.103C227.434 155.281 226.671 155.033 225.81 154.358C224.941 153.653 224.035 152.748 223.091 151.643C222.169 150.499 221.251 149.37 220.337 148.257C219.414 147.113 218.553 146.196 217.753 145.505C216.944 144.784 216.238 144.504 215.634 144.667L215.136 142.811C215.592 142.461 216.093 142.036 216.637 141.533C217.212 141.023 217.835 140.451 218.506 139.818C221.876 136.583 223.711 134.925 224.013 134.843C224.949 134.592 226.848 136.363 229.712 140.156C232.523 143.996 234.367 145.798 235.242 145.563C235.876 145.392 236.399 144.993 236.813 144.364C237.248 143.697 237.348 142.926 237.113 142.05L231.518 121.226C230.764 118.42 229.617 117.223 228.078 117.637C227.535 117.783 225.787 119.045 222.834 121.424C219.799 123.857 218.086 125.127 217.693 125.232ZM261.031 107.326L264.968 103.551L268.68 102.553L264.301 86.2563C263.685 83.9626 262.99 82.4018 262.218 81.574C261.467 80.7078 260.323 80.4815 258.783 80.895L258.005 77.9978L274.877 64.9217L277.174 67.5081C275.816 67.873 274.733 69.0215 273.925 70.9534C273.214 72.7625 273.284 75.2514 274.136 78.4202L279.816 99.561L284.434 98.3204L285.042 100.584L281.045 104.133L286.324 123.78C287.329 127.522 289.168 129.31 291.841 129.141L292.389 131.179L284.441 138.993C282.937 138.815 281.426 138.25 279.909 137.298C278.391 136.347 277.482 135.313 277.182 134.197L269.908 107.125L261.579 109.364L266.712 128.467C267.32 130.731 267.999 132.295 268.75 133.162C269.5 134.028 270.66 134.25 272.229 133.828L272.996 136.68L256.136 149.802L253.839 147.215C255.197 146.85 256.28 145.702 257.087 143.77C257.799 141.961 257.724 139.457 256.865 136.258L243.911 88.0461C242.897 84.2736 241.058 82.4865 238.393 82.6848L237.846 80.6477L245.793 72.8333C247.297 73.0117 248.808 73.5765 250.326 74.5278C251.843 75.4791 252.752 76.513 253.052 77.6297L261.031 107.326ZM295.562 121.492L282.304 72.1484C282.255 71.9674 282.844 71.3885 284.07 70.4119C285.318 69.397 286.889 68.1983 288.783 66.8159C290.676 65.4334 292.604 64.0579 294.566 62.6894C296.55 61.2826 298.303 60.0997 299.826 59.1406C301.348 58.1816 302.32 57.6453 302.742 57.5318C303.286 57.3858 304.092 57.5574 305.162 58.0465C306.224 58.5055 307.342 59.1757 308.517 60.0572C309.723 60.9306 310.793 61.9049 311.73 62.9801C312.688 64.017 313.305 65.0485 313.58 66.0746L327.58 118.18C327.629 118.361 327.059 118.951 325.872 119.949C324.714 120.94 323.238 122.129 321.443 123.518C319.64 124.876 317.757 126.239 315.795 127.608C313.863 128.968 312.11 130.151 310.536 131.156C308.984 132.124 307.906 132.688 307.302 132.85C306.306 133.118 305.012 132.818 303.42 131.952C301.82 131.055 300.277 129.706 298.79 127.905C297.303 126.105 296.227 123.967 295.562 121.492ZM312.756 122.26C313.964 121.935 315.037 121.113 315.977 119.793L303.643 73.8897C302.418 69.3325 300.237 67.4756 297.098 68.319C295.861 68.6514 294.775 69.4285 293.841 70.6501L306.199 116.644C307.432 121.231 309.618 123.103 312.756 122.26ZM332.841 56.2883C338.551 50.3211 341.889 47.2077 342.854 46.9482C343.337 46.8185 344.098 47.0022 345.138 47.4995C346.2 47.9585 347.333 48.6246 348.539 49.498C349.744 50.3714 350.815 51.3457 351.751 52.4208C352.709 53.4577 353.326 54.4892 353.602 55.5153L361.35 84.3519C361.407 84.5632 360.815 85.1914 359.575 86.2364C358.365 87.2734 356.821 88.5133 354.944 89.9561C353.059 91.3688 351.124 92.7785 349.14 94.1853C347.147 95.5619 345.42 96.7217 343.959 97.6645L346.476 107.035C347.085 109.299 347.764 110.864 348.514 111.73C349.265 112.596 350.425 112.818 351.994 112.397L352.76 115.248L335.9 128.37L333.604 125.783C334.962 125.419 336.044 124.27 336.852 122.338C337.563 120.529 337.489 118.025 336.63 114.826L323.724 66.7952C322.71 63.0227 320.871 61.2357 318.206 61.4339L317.659 59.3968L325.607 51.5825C326.982 51.7631 328.463 52.336 330.049 53.3012C331.635 54.2665 332.566 55.2622 332.841 56.2883ZM337.193 58.0314C336.106 58.3233 335.021 59.1003 333.936 60.3625L342.791 93.3186C343.877 93.0267 345.005 92.465 346.173 91.6334C347.341 90.8019 348.295 89.8982 349.036 88.9225C349.769 87.9167 350.038 87.0516 349.843 86.3273L343.737 63.602C342.513 59.0449 340.331 57.188 337.193 58.0314Z" fill="black"/>
</svg>
